# Blender v2.79 (sub 0) OBJ File: 'GPVFX_Potions.blend'
# www.blender.org
mtllib GPVFX_CORK.mtl
g GPVFX_Cork_GPVFX_Corks
v -0.000900 0.694470 -0.142167
v -0.000900 0.978805 -0.142167
v 0.026836 0.694470 -0.139435
v 0.026836 0.978805 -0.139435
v 0.053505 0.694470 -0.131345
v 0.053505 0.978805 -0.131345
v 0.078084 0.694470 -0.118208
v 0.078084 0.978805 -0.118208
v 0.099628 0.694470 -0.100527
v 0.099628 0.978805 -0.100527
v 0.117308 0.694470 -0.078984
v 0.117308 0.978805 -0.078984
v 0.130446 0.694470 -0.054405
v 0.130446 0.978805 -0.054405
v 0.138536 0.694470 -0.027735
v 0.138536 0.978805 -0.027735
v 0.141268 0.694470 -0.000000
v 0.141268 0.978805 -0.000000
v 0.138536 0.694470 0.027735
v 0.138536 0.978805 0.027735
v 0.130446 0.694470 0.054405
v 0.130446 0.978805 0.054405
v 0.117308 0.694470 0.078984
v 0.117308 0.978805 0.078984
v 0.099628 0.694470 0.100527
v 0.099628 0.978805 0.100527
v 0.078084 0.694470 0.118208
v 0.078084 0.978805 0.118208
v 0.053505 0.694470 0.131345
v 0.053505 0.978805 0.131345
v 0.026836 0.694470 0.139435
v 0.026836 0.978805 0.139435
v -0.000900 0.694470 0.142167
v -0.000900 0.978805 0.142167
v -0.028635 0.694470 0.139435
v -0.028635 0.978805 0.139435
v -0.055305 0.694470 0.131345
v -0.055305 0.978805 0.131345
v -0.079884 0.694470 0.118208
v -0.079884 0.978805 0.118208
v -0.101427 0.694470 0.100527
v -0.101427 0.978805 0.100527
v -0.119107 0.694470 0.078984
v -0.119107 0.978805 0.078984
v -0.132245 0.694470 0.054405
v -0.132245 0.978805 0.054405
v -0.140335 0.694470 0.027735
v -0.140335 0.978805 0.027735
v -0.143067 0.694470 -0.000000
v -0.143067 0.978805 -0.000000
v -0.140335 0.694470 -0.027736
v -0.140335 0.978805 -0.027736
v -0.132245 0.694470 -0.054405
v -0.132245 0.978805 -0.054405
v -0.119107 0.694470 -0.078984
v -0.119107 0.978805 -0.078984
v -0.101427 0.694470 -0.100528
v -0.101427 0.978805 -0.100528
v -0.079883 0.694470 -0.118208
v -0.079883 0.978805 -0.118208
v -0.055304 0.694470 -0.131345
v -0.055304 0.978805 -0.131345
v -0.028635 0.694470 -0.139436
v -0.028635 0.978805 -0.139436
vt 1.837877 -0.094967
vt 1.837877 1.094967
vt 1.754259 1.094967
vt 1.754259 -0.094967
vt 1.670642 1.094967
vt 1.670642 -0.094967
vt 1.587025 1.094967
vt 1.587025 -0.094967
vt 1.503407 1.094967
vt 1.503407 -0.094967
vt 1.419790 1.094967
vt 1.419790 -0.094967
vt 1.336173 1.094967
vt 1.336173 -0.094967
vt 1.252556 1.094967
vt 1.252556 -0.094967
vt 1.168938 1.094967
vt 1.168938 -0.094967
vt 1.085321 1.094967
vt 1.085321 -0.094967
vt 1.001704 1.094967
vt 1.001704 -0.094967
vt 0.918086 1.094967
vt 0.918086 -0.094967
vt 0.834469 1.094967
vt 0.834469 -0.094967
vt 0.750852 1.094967
vt 0.750852 -0.094967
vt 0.667235 1.094967
vt 0.667234 -0.094967
vt 0.583617 1.094967
vt 0.583617 -0.094967
vt 0.500000 1.094967
vt 0.500000 -0.094967
vt 0.416383 1.094967
vt 0.416383 -0.094967
vt 0.332765 1.094967
vt 0.332765 -0.094967
vt 0.249148 1.094967
vt 0.249148 -0.094967
vt 0.165531 1.094967
vt 0.165531 -0.094967
vt 0.081913 1.094967
vt 0.081913 -0.094967
vt -0.001704 1.094967
vt -0.001704 -0.094967
vt -0.085321 1.094967
vt -0.085321 -0.094967
vt -0.168939 1.094967
vt -0.168939 -0.094967
vt -0.252556 1.094967
vt -0.252556 -0.094967
vt -0.336174 1.094967
vt -0.336173 -0.094967
vt -0.419791 1.094967
vt -0.419791 -0.094967
vt -0.503408 1.094967
vt -0.503408 -0.094967
vt -0.587025 1.094967
vt -0.587025 -0.094967
vt -0.670643 1.094967
vt -0.670643 -0.094967
vt 0.585152 0.928089
vt 0.500000 0.936476
vt 0.414848 0.928090
vt 0.332968 0.903252
vt 0.257507 0.862917
vt 0.191365 0.808636
vt 0.137084 0.742494
vt 0.096749 0.667033
vt 0.071911 0.585153
vt 0.063524 0.500000
vt 0.071910 0.414848
vt 0.096748 0.332968
vt 0.137083 0.257507
vt 0.191364 0.191365
vt 0.257506 0.137083
vt 0.332968 0.096749
vt 0.414847 0.071911
vt 0.500000 0.063524
vt 0.585152 0.071910
vt 0.667032 0.096749
vt 0.742493 0.137083
vt 0.808635 0.191365
vt 0.862917 0.257507
vt 0.903251 0.332968
vt 0.928090 0.414848
vt 0.936476 0.500000
vt 0.928089 0.585152
vt 0.903251 0.667032
vt 0.862917 0.742493
vt 0.808635 0.808635
vt 0.742493 0.862917
vt 0.667032 0.903251
vt -0.754260 1.094967
vt -0.754260 -0.094967
vt -0.837877 1.094967
vt -0.837876 -0.094967
vt 0.500000 0.936476
vt 0.585152 0.928089
vt 0.667032 0.903251
vt 0.742493 0.862917
vt 0.808635 0.808635
vt 0.862917 0.742493
vt 0.903251 0.667032
vt 0.928089 0.585152
vt 0.936476 0.500000
vt 0.928090 0.414848
vt 0.903251 0.332968
vt 0.862917 0.257507
vt 0.808635 0.191365
vt 0.742493 0.137083
vt 0.667032 0.096749
vt 0.585152 0.071910
vt 0.500000 0.063524
vt 0.414847 0.071911
vt 0.332968 0.096749
vt 0.257506 0.137083
vt 0.191364 0.191365
vt 0.137083 0.257507
vt 0.096748 0.332968
vt 0.071910 0.414848
vt 0.063524 0.500000
vt 0.071911 0.585153
vt 0.096749 0.667033
vt 0.137084 0.742494
vt 0.191365 0.808636
vt 0.257507 0.862917
vt 0.332968 0.903252
vt 0.414848 0.928090
vn 0.0000 -0.6857 -0.7279
vn 0.0000 0.6857 -0.7279
vn 0.1420 0.6857 -0.7139
vn 0.1420 -0.6857 -0.7139
vn 0.2785 0.6857 -0.6725
vn 0.2785 -0.6857 -0.6725
vn 0.4044 0.6857 -0.6052
vn 0.4044 -0.6857 -0.6052
vn 0.5147 0.6857 -0.5147
vn 0.5147 -0.6857 -0.5147
vn 0.6052 0.6857 -0.4044
vn 0.6052 -0.6857 -0.4044
vn 0.6725 0.6857 -0.2785
vn 0.6725 -0.6857 -0.2785
vn 0.7139 0.6857 -0.1420
vn 0.7139 -0.6857 -0.1420
vn 0.7279 0.6857 0.0000
vn 0.7279 -0.6857 0.0000
vn 0.7139 0.6857 0.1420
vn 0.7139 -0.6857 0.1420
vn 0.6725 0.6857 0.2785
vn 0.6725 -0.6857 0.2785
vn 0.6052 0.6857 0.4044
vn 0.6052 -0.6857 0.4044
vn 0.5147 0.6857 0.5147
vn 0.5147 -0.6857 0.5147
vn 0.4044 0.6857 0.6052
vn 0.4044 -0.6857 0.6052
vn 0.2785 0.6857 0.6725
vn 0.2785 -0.6857 0.6725
vn 0.1420 0.6857 0.7139
vn 0.1420 -0.6857 0.7139
vn 0.0000 0.6857 0.7279
vn 0.0000 -0.6857 0.7279
vn -0.1420 0.6857 0.7139
vn -0.1420 -0.6857 0.7139
vn -0.2785 0.6857 0.6725
vn -0.2785 -0.6857 0.6725
vn -0.4044 0.6857 0.6052
vn -0.4044 -0.6857 0.6052
vn -0.5147 0.6857 0.5147
vn -0.5147 -0.6857 0.5147
vn -0.6052 0.6857 0.4044
vn -0.6052 -0.6857 0.4044
vn -0.6725 0.6857 0.2785
vn -0.6725 -0.6857 0.2785
vn -0.7139 0.6857 0.1420
vn -0.7139 -0.6857 0.1420
vn -0.7279 0.6857 0.0000
vn -0.7279 -0.6857 0.0000
vn -0.7139 0.6857 -0.1420
vn -0.7139 -0.6857 -0.1420
vn -0.6725 0.6857 -0.2785
vn -0.6725 -0.6857 -0.2785
vn -0.6052 0.6857 -0.4044
vn -0.6052 -0.6857 -0.4044
vn -0.5147 0.6857 -0.5147
vn -0.5147 -0.6857 -0.5147
vn -0.4044 0.6857 -0.6052
vn -0.4044 -0.6857 -0.6052
vn -0.2785 0.6857 -0.6725
vn -0.2785 -0.6857 -0.6725
vn -0.1420 0.6857 -0.7139
vn -0.1420 -0.6857 -0.7139
usemtl BI_Cork
s 1
f 1/1/1 2/2/2 4/3/3 3/4/4
f 3/4/4 4/3/3 6/5/5 5/6/6
f 5/6/6 6/5/5 8/7/7 7/8/8
f 7/8/8 8/7/7 10/9/9 9/10/10
f 9/10/10 10/9/9 12/11/11 11/12/12
f 11/12/12 12/11/11 14/13/13 13/14/14
f 13/14/14 14/13/13 16/15/15 15/16/16
f 15/16/16 16/15/15 18/17/17 17/18/18
f 17/18/18 18/17/17 20/19/19 19/20/20
f 19/20/20 20/19/19 22/21/21 21/22/22
f 21/22/22 22/21/21 24/23/23 23/24/24
f 23/24/24 24/23/23 26/25/25 25/26/26
f 25/26/26 26/25/25 28/27/27 27/28/28
f 27/28/28 28/27/27 30/29/29 29/30/30
f 29/30/30 30/29/29 32/31/31 31/32/32
f 31/32/32 32/31/31 34/33/33 33/34/34
f 33/34/34 34/33/33 36/35/35 35/36/36
f 35/36/36 36/35/35 38/37/37 37/38/38
f 37/38/38 38/37/37 40/39/39 39/40/40
f 39/40/40 40/39/39 42/41/41 41/42/42
f 41/42/42 42/41/41 44/43/43 43/44/44
f 43/44/44 44/43/43 46/45/45 45/46/46
f 45/46/46 46/45/45 48/47/47 47/48/48
f 47/48/48 48/47/47 50/49/49 49/50/50
f 49/50/50 50/49/49 52/51/51 51/52/52
f 51/52/52 52/51/51 54/53/53 53/54/54
f 53/54/54 54/53/53 56/55/55 55/56/56
f 55/56/56 56/55/55 58/57/57 57/58/58
f 57/58/58 58/57/57 60/59/59 59/60/60
f 59/60/60 60/59/59 62/61/61 61/62/62
f 4/63/3 2/64/2 64/65/63 62/66/61 60/67/59 58/68/57 56/69/55 54/70/53 52/71/51 50/72/49 48/73/47 46/74/45 44/75/43 42/76/41 40/77/39 38/78/37 36/79/35 34/80/33 32/81/31 30/82/29 28/83/27 26/84/25 24/85/23 22/86/21 20/87/19 18/88/17 16/89/15 14/90/13 12/91/11 10/92/9 8/93/7 6/94/5
f 61/62/62 62/61/61 64/95/63 63/96/64
f 63/96/64 64/95/63 2/97/2 1/98/1
f 1/99/1 3/100/4 5/101/6 7/102/8 9/103/10 11/104/12 13/105/14 15/106/16 17/107/18 19/108/20 21/109/22 23/110/24 25/111/26 27/112/28 29/113/30 31/114/32 33/115/34 35/116/36 37/117/38 39/118/40 41/119/42 43/120/44 45/121/46 47/122/48 49/123/50 51/124/52 53/125/54 55/126/56 57/127/58 59/128/60 61/129/62 63/130/64
